<mxfile host="Electron" modified="2023-12-04T01:17:00.533Z" agent="Mozilla/5.0 (Windows NT 10.0; Win64; x64) AppleWebKit/537.36 (KHTML, like Gecko) draw.io/22.1.2 Chrome/114.0.5735.289 Electron/25.9.4 Safari/537.36" etag="K5Ce1SddLdinu5zCgKMe" version="22.1.2" type="device">
  <diagram name="Page-1" id="1cYClSIvZaEBVR7gKxk0">
    <mxGraphModel dx="875" dy="532" grid="1" gridSize="10" guides="1" tooltips="1" connect="1" arrows="1" fold="1" page="1" pageScale="1" pageWidth="850" pageHeight="1100" math="0" shadow="0">
      <root>
        <mxCell id="0" />
        <mxCell id="1" parent="0" />
        <mxCell id="mHyu_LSoHrOpZ28f90TB-1" value="" style="rounded=0;whiteSpace=wrap;html=1;strokeWidth=9;" vertex="1" parent="1">
          <mxGeometry x="10" y="10" width="720" height="490" as="geometry" />
        </mxCell>
        <mxCell id="mHyu_LSoHrOpZ28f90TB-2" value="" style="rounded=0;whiteSpace=wrap;html=1;" vertex="1" parent="1">
          <mxGeometry x="50" y="40" width="650" height="30" as="geometry" />
        </mxCell>
        <mxCell id="mHyu_LSoHrOpZ28f90TB-4" value="" style="rounded=0;whiteSpace=wrap;html=1;" vertex="1" parent="1">
          <mxGeometry x="270" y="160" width="285" height="30" as="geometry" />
        </mxCell>
        <mxCell id="mHyu_LSoHrOpZ28f90TB-5" value="" style="rounded=0;whiteSpace=wrap;html=1;" vertex="1" parent="1">
          <mxGeometry x="270" y="200" width="285" height="30" as="geometry" />
        </mxCell>
        <mxCell id="mHyu_LSoHrOpZ28f90TB-6" value="" style="rounded=0;whiteSpace=wrap;html=1;" vertex="1" parent="1">
          <mxGeometry x="270" y="240" width="285" height="30" as="geometry" />
        </mxCell>
        <mxCell id="mHyu_LSoHrOpZ28f90TB-7" value="Username" style="text;html=1;strokeColor=none;fillColor=none;align=center;verticalAlign=middle;whiteSpace=wrap;rounded=0;" vertex="1" parent="1">
          <mxGeometry x="200" y="160" width="60" height="30" as="geometry" />
        </mxCell>
        <mxCell id="mHyu_LSoHrOpZ28f90TB-8" value="Password" style="text;html=1;strokeColor=none;fillColor=none;align=center;verticalAlign=middle;whiteSpace=wrap;rounded=0;" vertex="1" parent="1">
          <mxGeometry x="200" y="200" width="60" height="30" as="geometry" />
        </mxCell>
        <mxCell id="mHyu_LSoHrOpZ28f90TB-9" value="Confirm Password" style="text;html=1;strokeColor=none;fillColor=none;align=center;verticalAlign=middle;whiteSpace=wrap;rounded=0;" vertex="1" parent="1">
          <mxGeometry x="170" y="240" width="90" height="30" as="geometry" />
        </mxCell>
        <mxCell id="mHyu_LSoHrOpZ28f90TB-10" value="" style="rounded=0;whiteSpace=wrap;html=1;" vertex="1" parent="1">
          <mxGeometry x="270" y="280" width="285" height="30" as="geometry" />
        </mxCell>
        <mxCell id="mHyu_LSoHrOpZ28f90TB-11" value="Firstname" style="text;html=1;strokeColor=none;fillColor=none;align=center;verticalAlign=middle;whiteSpace=wrap;rounded=0;" vertex="1" parent="1">
          <mxGeometry x="170" y="280" width="90" height="30" as="geometry" />
        </mxCell>
        <mxCell id="mHyu_LSoHrOpZ28f90TB-12" value="" style="rounded=0;whiteSpace=wrap;html=1;" vertex="1" parent="1">
          <mxGeometry x="270" y="320" width="285" height="30" as="geometry" />
        </mxCell>
        <mxCell id="mHyu_LSoHrOpZ28f90TB-13" value="Lastname" style="text;html=1;strokeColor=none;fillColor=none;align=center;verticalAlign=middle;whiteSpace=wrap;rounded=0;" vertex="1" parent="1">
          <mxGeometry x="170" y="320" width="90" height="30" as="geometry" />
        </mxCell>
        <mxCell id="mHyu_LSoHrOpZ28f90TB-14" value="" style="rounded=0;whiteSpace=wrap;html=1;" vertex="1" parent="1">
          <mxGeometry x="60" y="120" width="120" height="10" as="geometry" />
        </mxCell>
      </root>
    </mxGraphModel>
  </diagram>
</mxfile>
